<svg t="1717726741455" class="icon" viewBox="0 0 3686 1024" version="1.1" xmlns="http://www.w3.org/2000/svg" p-id="18677" width="200" height="200"><path d="M954.368 497.664h112.64v-24.576h-116.736c0-32.768 2.048-61.44 2.048-83.968h-26.624c0 20.48 0 49.152-2.048 83.968H819.2v24.576h102.4c-8.192 75.776-45.056 141.312-112.64 196.608l16.384 20.48c59.392-49.152 98.304-106.496 114.688-178.176 18.432 71.68 59.392 131.072 118.784 176.128l18.432-20.48c-61.44-45.056-104.448-110.592-122.88-194.56zM811.008 397.312l-22.528-14.336c-14.336 20.48-30.72 36.864-47.104 53.248-16.384-20.48-34.816-36.864-57.344-51.2l-20.48 16.384c22.528 12.288 43.008 30.72 57.344 51.2-24.576 18.432-51.2 34.816-81.92 47.104l14.336 22.528c30.72-14.336 59.392-30.72 81.92-49.152 8.192 14.336 16.384 32.768 20.48 51.2-26.624 30.72-63.488 59.392-110.592 81.92l14.336 22.528c38.912-20.48 73.728-45.056 100.352-73.728 2.048 16.384 4.096 32.768 4.096 51.2 0 34.816-4.096 57.344-10.24 69.632-6.144 8.192-14.336 12.288-28.672 12.288-16.384 0-32.768 0-49.152-2.048l8.192 24.576h47.104c16.384 0 30.72-6.144 38.912-14.336 12.288-16.384 18.432-47.104 18.432-88.064 0-59.392-12.288-110.592-36.864-149.504 22.528-16.384 40.96-36.864 59.392-61.44zM980.992 389.12c24.576 24.576 45.056 47.104 61.44 65.536l20.48-14.336c-14.336-18.432-34.816-38.912-61.44-63.488l-20.48 12.288zM763.904 368.64h26.624v-36.864h139.264V368.64h26.624v-36.864h118.784v-26.624h-118.784v-40.96h-26.624v40.96h-139.264v-40.96h-26.624v40.96h-118.784v26.624h118.784zM1554.432 337.92v-24.576h-184.32v24.576h20.48c6.144 86.016 28.672 163.84 67.584 233.472-26.624 47.104-61.44 86.016-102.4 118.784l16.384 20.48c38.912-30.72 71.68-67.584 100.352-112.64 24.576 40.96 53.248 77.824 88.064 112.64l18.432-20.48c-36.864-34.816-67.584-73.728-92.16-116.736 34.816-63.488 57.344-141.312 67.584-235.52z m-83.968 210.944c-30.72-63.488-51.2-133.12-57.344-208.896h116.736c-10.24 79.872-28.672 149.504-59.392 208.896z" fill="#F37938" p-id="18678"></path><path d="M1374.208 585.728l-47.104 12.288V313.344h40.96v-24.576H1134.592v24.576h40.96v313.344c-14.336 2.048-30.72 4.096-47.104 6.144l6.144 26.624c57.344-8.192 110.592-18.432 163.84-30.72v86.016h26.624v-92.16l47.104-12.288v-24.576z m-73.728 18.432c-30.72 6.144-63.488 12.288-96.256 18.432v-92.16h96.256v73.728z m0-100.352h-96.256v-81.92h96.256v81.92z m0-106.496h-96.256v-83.968h96.256v83.968zM1929.216 612.352l22.528-6.144c-10.24-51.2-22.528-96.256-36.864-135.168l-22.528 8.192c14.336 43.008 26.624 86.016 36.864 133.12zM1816.576 493.568c18.432 45.056 32.768 92.16 43.008 139.264l22.528-6.144c-12.288-53.248-26.624-100.352-43.008-141.312l-22.528 8.192z" fill="#F37938" p-id="18679"></path><path d="M2039.808 477.184l-26.624-6.144c-14.336 79.872-32.768 147.456-53.248 200.704h-161.792V696.32h266.24v-24.576H1986.56c20.48-57.344 38.912-120.832 53.248-194.56zM1939.456 268.288h-24.576c-30.72 69.632-73.728 126.976-129.024 169.984l14.336 20.48c51.2-38.912 94.208-94.208 126.976-165.888 28.672 65.536 71.68 120.832 129.024 163.84l14.336-22.528c-61.44-45.056-104.448-100.352-131.072-165.888zM1773.568 290.816h-147.456v24.576h120.832l-22.528 178.176H1658.88l20.48-139.264-24.576-2.048-22.528 165.888h124.928c0 79.872-2.048 126.976-8.192 143.36-6.144 16.384-20.48 24.576-45.056 24.576-6.144 0-18.432 0-36.864-2.048l8.192 24.576h34.816c28.672 0 49.152-8.192 59.392-24.576 8.192-16.384 14.336-79.872 14.336-188.416h-32.768l22.528-204.8z" fill="#F37938" p-id="18680"></path><path d="M1726.464 569.344c-32.768 12.288-69.632 22.528-112.64 28.672l4.096 24.576c40.96-8.192 77.824-18.432 110.592-30.72v-22.528zM1861.632 411.648h135.168v24.576h-135.168zM2230.272 368.64l18.432-18.432c-22.528-26.624-49.152-51.2-83.968-77.824l-18.432 18.432c36.864 26.624 63.488 53.248 83.968 77.824zM2445.312 489.472h100.352v-24.576h-100.352v-147.456h106.496v-24.576h-274.432v24.576h141.312v354.304h-77.824v-266.24h-24.576v266.24h-53.248V696.32h299.008v-24.576h-116.736z" fill="#F37938" p-id="18681"></path><path d="M2269.184 587.776c-20.48 20.48-38.912 36.864-57.344 53.248V419.84h-100.352v26.624h73.728v202.752c0 6.144-2.048 12.288-8.192 16.384l10.24 24.576c30.72-22.528 61.44-47.104 88.064-73.728l-6.144-28.672zM3008.512 288.768h-206.848v24.576h176.128l-26.624 167.936h-112.64l22.528-126.976-26.624-2.048-26.624 155.648h196.608c0 83.968-4.096 135.168-12.288 151.552-8.192 16.384-30.72 24.576-67.584 24.576-8.192 0-24.576 0-47.104-2.048l8.192 24.576c16.384 0 30.72 2.048 45.056 2.048 40.96 0 67.584-8.192 79.872-26.624 12.288-18.432 18.432-86.016 18.432-200.704h-53.248l32.768-192.512zM2613.248 321.536h65.536c-12.288 77.824-38.912 147.456-79.872 204.8l14.336 22.528c14.336-20.48 26.624-43.008 38.912-65.536V696.32h24.576v-38.912h61.44v30.72h24.576V440.32h-92.16c14.336-36.864 24.576-75.776 30.72-118.784h75.776v-24.576h-165.888v24.576z m63.488 143.36h61.44v167.936h-61.44v-167.936z" fill="#F37938" p-id="18682"></path><path d="M2791.424 579.584h176.128v24.576h-176.128z" fill="#F37938" p-id="18683"></path><path d="M3174.4 0H512C229.376 0 0 229.376 0 512s229.376 512 512 512h2662.4c282.624 0 512-229.376 512-512S3457.024 0 3174.4 0z m0 1003.52H512C241.664 1003.52 20.48 782.336 20.48 512S241.664 20.48 512 20.48h2662.4c270.336 0 491.52 221.184 491.52 491.52s-221.184 491.52-491.52 491.52z" fill="#F37938" p-id="18684"></path></svg>