<svg t="1717726332627" class="icon" viewBox="0 0 3104 1024" version="1.1" xmlns="http://www.w3.org/2000/svg" p-id="18532" width="200" height="200"><path d="M2442.24 497.28h59.84v151.04h-59.84zM875.52 442.56h85.44v73.6h-85.44zM875.52 338.24h85.44v71.04h-85.44zM875.52 629.44l84.48-13.12v-67.2h-84.48z" fill="#0090FF" p-id="18533"></path><path d="M2976 0H128a128 128 0 0 0-128 128v768a128 128 0 0 0 128 128h2848a128 128 0 0 0 128-128V128a128 128 0 0 0-128-128zM1903.68 293.12A614.08 614.08 0 0 1 1984 367.68l-26.24 26.24a605.12 605.12 0 0 0-78.72-77.76zM288 320h119.68V279.68H448V320h131.84V279.68h37.44V320H736v34.56h-120v39.04H579.2v-38.72H448v41.6h-39.36v-41.6H288z m424.96 147.84l-26.56 21.12a320 320 0 0 0-70.08-64l25.6-19.52a316.16 316.16 0 0 1 72 62.72z m-333.44 273.92a228.16 228.16 0 0 1-56.32 2.56 72 72 0 0 0-11.84-33.92 285.44 285.44 0 0 0 53.12 0 20.48 20.48 0 0 0 16.64-8 203.84 203.84 0 0 0 16.32-103.04v-21.44a391.36 391.36 0 0 1-96 78.4 110.08 110.08 0 0 0-23.04-29.44 299.84 299.84 0 0 0 115.2-89.92 173.76 173.76 0 0 0-17.92-47.36 518.72 518.72 0 0 1-73.28 40.96 152.32 152.32 0 0 0-23.04-24.96 552.64 552.64 0 0 0 78.08-41.92 224 224 0 0 0-50.88-45.12l24.64-19.52A231.04 231.04 0 0 1 384 444.16a302.08 302.08 0 0 0 39.68-37.44l32 17.6a352 352 0 0 1-50.56 45.44 240 240 0 0 1 30.08 131.2c0 58.24-5.44 102.72-25.92 126.4a43.52 43.52 0 0 1-29.76 14.4z m336.96 5.12a277.76 277.76 0 0 1-128-160 275.84 275.84 0 0 1-128 162.88 137.28 137.28 0 0 0-27.84-24.64 253.76 253.76 0 0 0 129.6-192H448v-36.8h118.72v-92.16h36.16v92.16H736v35.84h-130.24c22.72 85.76 65.6 152.64 135.68 183.36a151.68 151.68 0 0 0-24.96 31.36z m281.92 0H960v-96c-55.36 10.24-109.76 19.52-152.64 27.2L800 640l38.4-5.12v-296.64h-33.92V303.36h231.36v34.88H998.4v271.68l43.2-7.04 1.92 32-45.12 8z m247.04-2.88a305.6 305.6 0 0 1-96-99.52 400.32 400.32 0 0 1-101.44 103.36 104.96 104.96 0 0 0-24.64-28.48A340.16 340.16 0 0 0 1130.24 608a846.08 846.08 0 0 1-68.16-235.2h-24.64v-35.84h192l23.04 6.4A712 712 0 0 1 1171.52 608a284.8 284.8 0 0 0 100.48 104.64 156.48 156.48 0 0 0-26.56 30.72z m74.56-111.68c34.88-7.68 84.48-21.12 134.72-33.92l3.52 29.12c-46.08 12.8-92.8 26.24-131.2 36.48z m192-98.56c-8 128-15.68 176.96-32 192a43.52 43.52 0 0 1-33.92 14.72H1385.6a75.52 75.52 0 0 0-10.56-32c24.96 2.56 48.64 2.88 58.24 2.88s13.44 0 17.92-6.08c10.88-10.56 18.56-52.16 25.28-156.48h-134.4c6.08-44.8 12.8-120.96 15.68-175.36l32 1.6c-3.2 44.48-8.32 99.84-12.8 142.4h64c6.08-48.64 12.8-120.32 16.64-181.76h-121.28v-32h156.16c-5.12 68.48-12.16 160-18.88 215.04h40s0 9.92-0.64 14.4z m271.04 189.12h-259.2v-32h148.16a1223.04 1223.04 0 0 0 73.6-178.88l34.88 9.28a1756.8 1756.8 0 0 1-74.88 167.36h78.4zM1574.4 470.4v-32h151.68v32z m108.16 156.48l-32 4.8a814.72 814.72 0 0 0-18.56-121.92l30.08-4.16a858.88 858.88 0 0 1 20.48 121.28z m-77.76 9.28l-32 8.64a584.32 584.32 0 0 0-32-122.24l29.76-7.36a664.96 664.96 0 0 1 34.24 120.96z m174.72-158.08a676.48 676.48 0 0 1-133.76-136.32 473.6 473.6 0 0 1-128 137.28 368.96 368.96 0 0 0-22.4-32 399.68 399.68 0 0 0 147.52-173.12l32 11.52c-3.52 8-7.68 15.36-11.2 23.04a527.36 527.36 0 0 0 134.08 132.48 139.84 139.84 0 0 0-18.24 37.12z m139.52 256a140.48 140.48 0 0 0-24-25.6 75.84 75.84 0 0 0 28.48-55.04v-177.6h-71.68v-36.48h108.8v211.2l51.52-39.36a259.84 259.84 0 0 0 15.36 32c-87.36 68.16-101.44 79.68-107.52 89.92z m395.84-5.76h-309.12v-36.8h43.84v-245.44h37.44v245.44h68.8V354.56h-132.16V320H2304v35.84h-109.76v133.12h100.8v35.84h-100.8v168h120.64z m235.52-384h-76.48a790.4 790.4 0 0 1-32 121.92h93.76v219.2h-93.44v41.28h-32v-187.2a310.72 310.72 0 0 1-26.56 40.96 217.92 217.92 0 0 0-17.28-40.64 482.56 482.56 0 0 0 72.96-198.08h-64V306.24h175.04z m9.6 258.24h192v34.24h-192z m267.84-83.2c-11.52 137.28-23.04 192-40.96 208.96a43.52 43.52 0 0 1-34.88 15.36 477.76 477.76 0 0 1-61.12 0 90.88 90.88 0 0 0-10.56-35.2 496.32 496.32 0 0 0 56.64 2.88 24 24 0 0 0 18.24-7.36c13.44-12.8 24-57.92 33.92-169.92h-206.4c6.72-41.6 13.12-109.12 16.96-160l35.2 1.92c-2.56 39.04-7.68 86.08-12.16 123.84h106.56c6.08-51.2 12.8-112.96 16.64-157.76h-170.56v-32H2752l5.76-2.24 26.56 3.2c-4.16 52.8-11.84 128-20.48 192h64s-0.96 11.2-1.28 16.32z" fill="#0090FF" p-id="18534"></path><path d="M1096.96 372.8A764.16 764.16 0 0 0 1152 569.6a649.6 649.6 0 0 0 60.8-196.8z" fill="#0090FF" p-id="18535"></path></svg>